<svg width="1200" height="760" viewBox="0 0 1200 760" fill="none" xmlns="http://www.w3.org/2000/svg" role="img" aria-label="Lumina AI dashboard preview">
  <defs>
    <linearGradient id="bg" x1="0" y1="0" x2="1200" y2="760" gradientUnits="userSpaceOnUse">
      <stop stop-color="#FFFFFF"/>
      <stop offset="1" stop-color="#F6F5FF"/>
    </linearGradient>
    <linearGradient id="accent" x1="0" y1="0" x2="1" y2="1">
      <stop stop-color="#7C3AED"/>
      <stop offset="1" stop-color="#A78BFA"/>
    </linearGradient>
    <filter id="shadow" x="-10" y="-10" width="1220" height="780" filterUnits="userSpaceOnUse" color-interpolation-filters="sRGB">
      <feDropShadow dx="0" dy="10" stdDeviation="18" flood-color="#0B0B12" flood-opacity="0.10"/>
    </filter>
  </defs>

  <rect x="0" y="0" width="1200" height="760" rx="28" fill="url(#bg)"/>

  <!-- window chrome -->
  <g filter="url(#shadow)">
    <rect x="40" y="40" width="1120" height="680" rx="22" fill="#FFFFFF" stroke="rgba(10,10,20,0.10)"/>
  </g>
  <rect x="40" y="40" width="1120" height="56" rx="22" fill="#FFFFFF" stroke="rgba(10,10,20,0.10)"/>
  <circle cx="76" cy="68" r="6" fill="rgba(10,10,20,0.18)"/>
  <circle cx="98" cy="68" r="6" fill="rgba(10,10,20,0.14)"/>
  <circle cx="120" cy="68" r="6" fill="rgba(10,10,20,0.10)"/>
  <rect x="170" y="56" width="380" height="24" rx="12" fill="rgba(10,10,20,0.06)"/>
  <rect x="1060" y="56" width="80" height="24" rx="12" fill="rgba(124,58,237,0.14)"/>

  <!-- sidebar -->
  <rect x="60" y="120" width="220" height="580" rx="18" fill="#FBFBFF" stroke="rgba(10,10,20,0.08)"/>
  <rect x="84" y="150" width="130" height="14" rx="7" fill="rgba(10,10,20,0.12)"/>
  <rect x="84" y="190" width="170" height="34" rx="12" fill="rgba(124,58,237,0.12)"/>
  <rect x="96" y="202" width="110" height="10" rx="5" fill="#7C3AED"/>
  <rect x="84" y="238" width="170" height="34" rx="12" fill="rgba(10,10,20,0.05)"/>
  <rect x="84" y="286" width="170" height="34" rx="12" fill="rgba(10,10,20,0.05)"/>
  <rect x="84" y="334" width="170" height="34" rx="12" fill="rgba(10,10,20,0.05)"/>
  <rect x="84" y="382" width="170" height="34" rx="12" fill="rgba(10,10,20,0.05)"/>

  <!-- main header -->
  <rect x="304" y="120" width="856" height="86" rx="18" fill="#FFFFFF" stroke="rgba(10,10,20,0.08)"/>
  <rect x="328" y="146" width="320" height="16" rx="8" fill="rgba(10,10,20,0.14)"/>
  <rect x="328" y="170" width="460" height="12" rx="6" fill="rgba(10,10,20,0.08)"/>
  <rect x="1038" y="146" width="98" height="36" rx="18" fill="url(#accent)"/>
  <rect x="920" y="146" width="104" height="36" rx="18" fill="rgba(10,10,20,0.05)"/>

  <!-- metric cards -->
  <rect x="304" y="224" width="276" height="140" rx="18" fill="#FFFFFF" stroke="rgba(10,10,20,0.08)"/>
  <rect x="328" y="250" width="120" height="12" rx="6" fill="rgba(10,10,20,0.10)"/>
  <rect x="328" y="274" width="96" height="28" rx="10" fill="rgba(10,10,20,0.14)"/>
  <rect x="328" y="320" width="220" height="10" rx="5" fill="rgba(124,58,237,0.12)"/>
  <rect x="328" y="338" width="170" height="10" rx="5" fill="rgba(10,10,20,0.06)"/>

  <rect x="592" y="224" width="276" height="140" rx="18" fill="#FFFFFF" stroke="rgba(10,10,20,0.08)"/>
  <rect x="616" y="250" width="120" height="12" rx="6" fill="rgba(10,10,20,0.10)"/>
  <rect x="616" y="274" width="104" height="28" rx="10" fill="rgba(10,10,20,0.14)"/>
  <rect x="616" y="320" width="220" height="10" rx="5" fill="rgba(124,58,237,0.12)"/>
  <rect x="616" y="338" width="170" height="10" rx="5" fill="rgba(10,10,20,0.06)"/>

  <rect x="880" y="224" width="280" height="140" rx="18" fill="#FFFFFF" stroke="rgba(10,10,20,0.08)"/>
  <rect x="904" y="250" width="140" height="12" rx="6" fill="rgba(10,10,20,0.10)"/>
  <rect x="904" y="274" width="116" height="28" rx="10" fill="rgba(10,10,20,0.14)"/>
  <rect x="904" y="320" width="232" height="10" rx="5" fill="rgba(124,58,237,0.12)"/>
  <rect x="904" y="338" width="180" height="10" rx="5" fill="rgba(10,10,20,0.06)"/>

  <!-- table -->
  <rect x="304" y="380" width="556" height="320" rx="18" fill="#FFFFFF" stroke="rgba(10,10,20,0.08)"/>
  <rect x="328" y="406" width="240" height="12" rx="6" fill="rgba(10,10,20,0.10)"/>
  <rect x="328" y="436" width="508" height="38" rx="14" fill="rgba(10,10,20,0.04)"/>
  <rect x="328" y="482" width="508" height="38" rx="14" fill="rgba(10,10,20,0.04)"/>
  <rect x="328" y="528" width="508" height="38" rx="14" fill="rgba(10,10,20,0.04)"/>
  <rect x="328" y="574" width="508" height="38" rx="14" fill="rgba(10,10,20,0.04)"/>
  <rect x="328" y="620" width="508" height="38" rx="14" fill="rgba(10,10,20,0.04)"/>
  <rect x="344" y="448" width="120" height="12" rx="6" fill="rgba(10,10,20,0.10)"/>
  <rect x="344" y="494" width="150" height="12" rx="6" fill="rgba(10,10,20,0.10)"/>
  <rect x="344" y="540" width="110" height="12" rx="6" fill="rgba(10,10,20,0.10)"/>
  <rect x="344" y="586" width="160" height="12" rx="6" fill="rgba(10,10,20,0.10)"/>
  <rect x="344" y="632" width="130" height="12" rx="6" fill="rgba(10,10,20,0.10)"/>
  <rect x="744" y="444" width="72" height="20" rx="10" fill="rgba(124,58,237,0.14)"/>
  <rect x="744" y="490" width="72" height="20" rx="10" fill="rgba(10,10,20,0.06)"/>
  <rect x="744" y="536" width="72" height="20" rx="10" fill="rgba(10,10,20,0.06)"/>
  <rect x="744" y="582" width="72" height="20" rx="10" fill="rgba(124,58,237,0.14)"/>
  <rect x="744" y="628" width="72" height="20" rx="10" fill="rgba(10,10,20,0.06)"/>

  <!-- insights panel -->
  <rect x="880" y="380" width="280" height="320" rx="18" fill="#FFFFFF" stroke="rgba(10,10,20,0.08)"/>
  <rect x="904" y="406" width="150" height="12" rx="6" fill="rgba(10,10,20,0.10)"/>
  <path d="M912 654C952 590 980 612 1008 572C1040 528 1076 560 1124 500" stroke="url(#accent)" stroke-width="3" stroke-linecap="round"/>
  <path d="M912 654C952 590 980 612 1008 572C1040 528 1076 560 1124 500" stroke="rgba(124,58,237,0.18)" stroke-width="10" stroke-linecap="round"/>
  <rect x="904" y="436" width="232" height="64" rx="16" fill="rgba(10,10,20,0.04)"/>
  <rect x="920" y="454" width="120" height="10" rx="5" fill="rgba(10,10,20,0.10)"/>
  <rect x="920" y="474" width="180" height="10" rx="5" fill="rgba(10,10,20,0.06)"/>
  <rect x="904" y="512" width="232" height="64" rx="16" fill="rgba(10,10,20,0.04)"/>
  <rect x="920" y="530" width="140" height="10" rx="5" fill="rgba(10,10,20,0.10)"/>
  <rect x="920" y="550" width="170" height="10" rx="5" fill="rgba(10,10,20,0.06)"/>
</svg>

